<mxfile host="app.diagrams.net" modified="2023-01-07T08:31:53.233Z" agent="5.0 (Macintosh; Intel Mac OS X 10_15_7) AppleWebKit/537.36 (KHTML, like Gecko) Chrome/108.0.0.0 Safari/537.36" etag="WluywSjUct6-rMEp40J9" version="20.8.3" type="github">
  <diagram id="Cc7i2nrXAPJifbFOZoFY" name="第 1 页">
    <mxGraphModel dx="954" dy="616" grid="1" gridSize="10" guides="1" tooltips="1" connect="1" arrows="1" fold="1" page="1" pageScale="1" pageWidth="827" pageHeight="1169" math="0" shadow="0">
      <root>
        <mxCell id="0" />
        <mxCell id="1" parent="0" />
        <mxCell id="BDsqaUhXTQ0Hbzn26vz0-4" style="edgeStyle=orthogonalEdgeStyle;rounded=0;orthogonalLoop=1;jettySize=auto;html=1;exitX=1;exitY=0.25;exitDx=0;exitDy=0;" edge="1" parent="1" source="BDsqaUhXTQ0Hbzn26vz0-1" target="BDsqaUhXTQ0Hbzn26vz0-3">
          <mxGeometry relative="1" as="geometry" />
        </mxCell>
        <mxCell id="BDsqaUhXTQ0Hbzn26vz0-5" style="edgeStyle=orthogonalEdgeStyle;rounded=0;orthogonalLoop=1;jettySize=auto;html=1;exitX=0.5;exitY=1;exitDx=0;exitDy=0;" edge="1" parent="1" source="BDsqaUhXTQ0Hbzn26vz0-1" target="BDsqaUhXTQ0Hbzn26vz0-2">
          <mxGeometry relative="1" as="geometry" />
        </mxCell>
        <mxCell id="BDsqaUhXTQ0Hbzn26vz0-1" value="wqewq" style="rounded=1;whiteSpace=wrap;html=1;" vertex="1" parent="1">
          <mxGeometry x="280" y="210" width="120" height="30" as="geometry" />
        </mxCell>
        <mxCell id="BDsqaUhXTQ0Hbzn26vz0-2" value="wqewq" style="rounded=1;whiteSpace=wrap;html=1;" vertex="1" parent="1">
          <mxGeometry x="294" y="350" width="120" height="60" as="geometry" />
        </mxCell>
        <mxCell id="BDsqaUhXTQ0Hbzn26vz0-3" value="wqewq" style="rounded=1;whiteSpace=wrap;html=1;" vertex="1" parent="1">
          <mxGeometry x="530" y="190" width="120" height="60" as="geometry" />
        </mxCell>
      </root>
    </mxGraphModel>
  </diagram>
</mxfile>
